<svg xmlns="http://www.w3.org/2000/svg" viewBox="0 0 800 400" fill="none">
  <rect width="800" height="400" rx="16" fill="#1D1D1D"/>
  <text x="400" y="40" text-anchor="middle" fill="#E3405F" font-family="sans-serif" font-size="18" font-weight="bold">Arythm — Architecture</text>
  <!-- Player UI -->
  <rect x="40" y="120" width="160" height="60" rx="8" fill="#292A2D" stroke="#E3405F" stroke-width="1.5"/>
  <text x="120" y="155" text-anchor="middle" fill="#fff" font-family="sans-serif" font-size="13">React Player UI</text>
  <!-- State -->
  <rect x="280" y="120" width="160" height="60" rx="8" fill="#292A2D" stroke="#E3405F" stroke-width="1.5"/>
  <text x="360" y="155" text-anchor="middle" fill="#fff" font-family="sans-serif" font-size="13">Audio State</text>
  <!-- API Proxy -->
  <rect x="520" y="120" width="160" height="60" rx="8" fill="#292A2D" stroke="#E3405F" stroke-width="1.5"/>
  <text x="600" y="155" text-anchor="middle" fill="#fff" font-family="sans-serif" font-size="13">Edge API Proxy</text>
  <!-- YouTube -->
  <rect x="520" y="260" width="160" height="60" rx="8" fill="#292A2D" stroke="#E3405F" stroke-width="1.5"/>
  <text x="600" y="295" text-anchor="middle" fill="#fff" font-family="sans-serif" font-size="13">YouTube Data API</text>
  <!-- Lyrics -->
  <rect x="280" y="260" width="160" height="60" rx="8" fill="#292A2D" stroke="#E3405F" stroke-width="1.5"/>
  <text x="360" y="295" text-anchor="middle" fill="#fff" font-family="sans-serif" font-size="13">Lyrics Sync</text>
  <!-- Arrows -->
  <line x1="200" y1="150" x2="280" y2="150" stroke="#8D8D8D" stroke-width="1.5" marker-end="url(#ar)"/>
  <line x1="440" y1="150" x2="520" y2="150" stroke="#8D8D8D" stroke-width="1.5" marker-end="url(#ar)"/>
  <line x1="600" y1="180" x2="600" y2="260" stroke="#8D8D8D" stroke-width="1.5" marker-end="url(#ar)"/>
  <line x1="360" y1="180" x2="360" y2="260" stroke="#8D8D8D" stroke-width="1.5" marker-end="url(#ar)"/>
  <text x="400" y="370" text-anchor="middle" fill="#6E6E73" font-family="sans-serif" font-size="11">Placeholder — replace with detailed diagram</text>
  <defs><marker id="ar" markerWidth="8" markerHeight="6" refX="8" refY="3" orient="auto"><path d="M0,0 L8,3 L0,6Z" fill="#8D8D8D"/></marker></defs>
</svg>
