<svg xmlns="http://www.w3.org/2000/svg" viewBox="0 0 800 400" fill="none">
  <rect width="800" height="400" rx="16" fill="#1D1D1D"/>
  <text x="400" y="40" text-anchor="middle" fill="#E3405F" font-family="sans-serif" font-size="18" font-weight="bold">AURA — Architecture</text>
  <!-- GUI -->
  <rect x="40" y="100" width="140" height="60" rx="8" fill="#292A2D" stroke="#E3405F" stroke-width="1.5"/>
  <text x="110" y="135" text-anchor="middle" fill="#fff" font-family="sans-serif" font-size="13">PyQt6 GUI</text>
  <!-- Core -->
  <rect x="260" y="100" width="140" height="60" rx="8" fill="#292A2D" stroke="#E3405F" stroke-width="1.5"/>
  <text x="330" y="135" text-anchor="middle" fill="#fff" font-family="sans-serif" font-size="13">Core Engine</text>
  <!-- Ollama -->
  <rect x="480" y="100" width="140" height="60" rx="8" fill="#292A2D" stroke="#E3405F" stroke-width="1.5"/>
  <text x="550" y="135" text-anchor="middle" fill="#fff" font-family="sans-serif" font-size="13">Ollama LLM</text>
  <!-- Voice -->
  <rect x="40" y="240" width="140" height="60" rx="8" fill="#292A2D" stroke="#E3405F" stroke-width="1.5"/>
  <text x="110" y="270" text-anchor="middle" fill="#fff" font-family="sans-serif" font-size="13">Whisper Voice</text>
  <!-- ChromaDB -->
  <rect x="260" y="240" width="140" height="60" rx="8" fill="#292A2D" stroke="#E3405F" stroke-width="1.5"/>
  <text x="330" y="270" text-anchor="middle" fill="#fff" font-family="sans-serif" font-size="13">ChromaDB</text>
  <!-- Plugins -->
  <rect x="480" y="240" width="140" height="60" rx="8" fill="#292A2D" stroke="#E3405F" stroke-width="1.5"/>
  <text x="550" y="270" text-anchor="middle" fill="#fff" font-family="sans-serif" font-size="13">Plugin System</text>
  <!-- Arrows -->
  <line x1="180" y1="130" x2="260" y2="130" stroke="#8D8D8D" stroke-width="1.5" marker-end="url(#a)"/>
  <line x1="400" y1="130" x2="480" y2="130" stroke="#8D8D8D" stroke-width="1.5" marker-end="url(#a)"/>
  <line x1="110" y1="240" x2="110" y2="160" stroke="#8D8D8D" stroke-width="1.5" marker-end="url(#a)"/>
  <line x1="330" y1="240" x2="330" y2="160" stroke="#8D8D8D" stroke-width="1.5" marker-end="url(#a)"/>
  <line x1="550" y1="240" x2="550" y2="160" stroke="#8D8D8D" stroke-width="1.5" marker-end="url(#a)"/>
  <text x="400" y="370" text-anchor="middle" fill="#6E6E73" font-family="sans-serif" font-size="11">Placeholder — replace with detailed diagram</text>
  <defs><marker id="a" markerWidth="8" markerHeight="6" refX="8" refY="3" orient="auto"><path d="M0,0 L8,3 L0,6Z" fill="#8D8D8D"/></marker></defs>
</svg>
